<svg width="40" height="10" viewBox="0 0 40 10" fill="none" xmlns="http://www.w3.org/2000/svg">
<path d="M33.5014 9.0791C37.0847 9.0791 39.9998 7.06039 39.9998 4.57905C39.9998 2.09771 37.0847 0.0791016 33.5014 0.0791016C30.112 0.0791016 27.3219 1.88547 27.0298 4.1809H22.3527V3.2343L-0.000213623 3.2343V5.92357L22.3528 5.92357V4.97708H27.0299C27.3221 7.27262 30.112 9.0791 33.5014 9.0791ZM21.4896 5.12749L0.863079 5.12749V4.03071H21.4896V5.12749ZM27.866 4.57905C27.866 2.53689 30.3942 0.875505 33.5015 0.875505C36.6088 0.875505 39.137 2.53689 39.137 4.57905C39.137 6.62132 36.6088 8.28281 33.5015 8.28281C30.3942 8.28281 27.866 6.62132 27.866 4.57905Z" fill="#DCCA87"/>
</svg>
