<svg width="323" height="86" viewBox="0 0 323 86" fill="none" xmlns="http://www.w3.org/2000/svg">
<path d="M50.9375 7.96875C51.5625 9.61458 51.8438 12.5 51.7812 16.625C51.7396 20.7292 51.375 24.3438 50.6875 27.4688C49.1042 34.5729 47.2708 40.4583 45.1875 45.125C43.1042 49.7708 40.3229 54.1771 36.8438 58.3438C34.4271 61.2396 31.9896 63.4896 29.5312 65.0938C27.0729 66.6771 24.0208 67.9896 20.375 69.0312L16.0938 70.2812L14.4375 75.2812C13.4167 78.4896 12.5312 80.7188 11.7812 81.9688C10.8854 83.4062 9.89583 84.2396 8.8125 84.4688C7.75 84.7188 6.86458 84.3125 6.15625 83.25C5.80208 82.7083 5.5625 81.9062 5.4375 80.8438C5.3125 79.8021 5.22917 77.8438 5.1875 74.9688L5.125 68.0625L3.65625 66.8438C2.90625 66.1979 2.13542 65.1771 1.34375 63.7812C0.572917 62.3854 0.1875 61.3333 0.1875 60.625C0.1875 60.0417 0.427083 59.7604 0.90625 59.7812C1.55208 59.8229 2.17708 60.2812 2.78125 61.1562L3.09375 61.6562C3.48958 62.4062 3.875 63.0625 4.25 63.625C4.625 64.1875 4.9375 64.6042 5.1875 64.875C5.45833 65.125 5.64583 65.1979 5.75 65.0938C5.89583 64.9688 6.39583 63.2812 7.25 60.0312C8.79167 54.0938 11.4688 47.0208 15.2812 38.8125C17.4896 33.9583 18.5938 30.9792 18.5938 29.875C18.5938 28.6458 18.3229 26.3646 17.7812 23.0312C17.2604 19.6771 16.7917 17.2396 16.375 15.7188C15.6042 13.0312 15.25 11.5312 15.3125 11.2188C15.4167 11.0104 15.6667 10.9062 16.0625 10.9062C16.9792 10.9062 17.6875 11.5625 18.1875 12.875C18.7083 14.1875 19.3229 16.9167 20.0312 21.0625C20.6771 24.7083 21.0625 26.5938 21.1875 26.7188C21.2292 26.7604 21.3229 26.6771 21.4688 26.4688C21.6146 26.2604 21.8021 25.9688 22.0312 25.5938C22.2604 25.2188 22.4896 24.8021 22.7188 24.3438C24.1979 21.6562 26.1042 18.6979 28.4375 15.4688C30.7917 12.2188 32.8438 9.71875 34.5938 7.96875C36.0521 6.48958 37.1979 5.44792 38.0312 4.84375C38.8646 4.21875 39.8021 3.73958 40.8438 3.40625C45.7812 1.78125 49.1458 3.30208 50.9375 7.96875ZM10.5312 78.8438C11.0729 77.5729 11.6562 75.9583 12.2812 74C12.9271 72.0417 13.25 70.8542 13.25 70.4375C13.25 70.2083 12.3646 70.0417 10.5938 69.9375C8.84375 69.8125 7.875 69.9688 7.6875 70.4062C7.52083 70.8229 7.44792 72.4479 7.46875 75.2812C7.48958 78.1146 7.59375 79.8646 7.78125 80.5312C8.28125 82.3229 9.19792 81.7604 10.5312 78.8438ZM15.4062 62.125C16.6354 56.7917 17.5833 51.6146 18.25 46.5938C18.9375 41.5729 19.0625 38.8229 18.625 38.3438C18.5 38.2188 18.125 38.7708 17.5 40C16.875 41.2083 16.125 42.8229 15.25 44.8438C14.375 46.8646 13.5 48.9792 12.625 51.1875C11.7708 53.375 10.8125 56.4896 9.75 60.5312C8.85417 64.0104 8.5 66.0521 8.6875 66.6562C8.875 67.2604 9.94792 67.5729 11.9062 67.5938H14.1562L15.4062 62.125ZM48.1875 26.875C49.8958 18.375 49.9896 12.2396 48.4688 8.46875C47.2604 5.55208 45.2292 4.5625 42.375 5.5C41.0625 5.91667 39.625 6.75 38.0625 8C34.25 10.9792 29.5938 17.3542 24.0938 27.125L21.625 31.5L21.3438 38.75C21.0521 46.3542 19.9062 54.2604 17.9062 62.4688C17.3646 64.7396 17.125 66.0729 17.1875 66.4688C17.25 66.9688 17.6458 67.1562 18.375 67.0312C18.75 66.9688 19.8333 66.6667 21.625 66.125C24.7292 65.1458 27.7812 63.3542 30.7812 60.75C33.8021 58.1458 36.625 54.8333 39.25 50.8125C41.3333 47.625 43.0833 44.1354 44.5 40.3438C45.9167 36.5521 47.1458 32.0625 48.1875 26.875ZM78.6225 56.6875L78.81 56.75C78.9558 56.7708 79.06 56.8438 79.1225 56.9688C79.2058 57.0729 79.2267 57.2396 79.185 57.4688C79.1225 57.7396 78.7683 58.1875 78.1225 58.8125C77.4975 59.4375 76.4558 60.2604 74.9975 61.2812C73.5392 62.2812 71.9038 63.25 70.0913 64.1875C68.2163 65.1667 66.6538 65.7708 65.4038 66C64.1746 66.2083 63.0392 66.0729 61.9975 65.5938C60.2683 64.8021 59.4038 63.4167 59.4038 61.4375V59.9375L55.935 62.4062C54.4142 63.4688 53.3308 64.1458 52.685 64.4375C52.06 64.7083 51.3413 64.8125 50.5288 64.75C49.9454 64.7083 49.4767 64.5417 49.1225 64.25C48.7683 63.9583 48.5496 63.5938 48.4663 63.1562C48.3829 62.7188 48.3621 62.2708 48.4038 61.8125C48.4663 61.3542 48.5704 60.8854 48.7163 60.4062C49.1329 59.0729 49.9558 57.7917 51.185 56.5625C52.435 55.3125 53.7371 54.4896 55.0913 54.0938C55.9454 53.8438 56.6329 53.7292 57.1538 53.75C57.6746 53.7708 58.3933 53.9479 59.31 54.2812L61.4663 55.0625L63.8725 53.1875C65.8933 51.6042 67.1121 51.1979 67.5288 51.9688C67.6121 52.1354 67.6538 52.3438 67.6538 52.5938C67.6538 53.0312 66.8829 54.0208 65.3413 55.5625C64.0079 56.8333 63.0392 58.1771 62.435 59.5938C61.8308 60.9896 61.7892 62 62.31 62.625C63.06 63.5625 64.4142 63.7083 66.3725 63.0625C68.3517 62.4167 71.2579 60.8646 75.0913 58.4062C75.7371 57.9896 76.3308 57.6354 76.8725 57.3438C77.435 57.0521 77.8517 56.8646 78.1225 56.7812C78.4142 56.6771 78.5808 56.6458 78.6225 56.6875ZM58.685 57.0938C58.9142 56.7188 58.6746 56.4688 57.9663 56.3438C56.9871 56.1562 56.06 56.2917 55.185 56.75C53.9767 57.3958 52.8204 58.4583 51.7163 59.9375C50.7371 61.25 50.435 62.0521 50.81 62.3438C50.8725 62.3854 50.9663 62.4062 51.0913 62.4062C51.4246 62.4062 52.7058 61.5938 54.935 59.9688C55.8308 59.3646 56.6538 58.7708 57.4038 58.1875C58.1746 57.6042 58.6017 57.2396 58.685 57.0938ZM95.0575 36.25C102.474 35.2292 108.547 34.9167 113.276 35.3125C118.026 35.6875 120.401 36.6979 120.401 38.3438C120.401 38.7396 120.297 39.0104 120.089 39.1562C119.901 39.2812 119.578 39.3021 119.12 39.2188C118.662 39.1146 118.026 38.8854 117.214 38.5312C116.485 38.1979 115.558 37.9792 114.433 37.875C113.308 37.7708 111.505 37.7292 109.026 37.75C105.735 37.7708 101.87 38.0312 97.4325 38.5312C93.0158 39.0104 90.5679 39.4479 90.0888 39.8438C89.6929 40.1771 88.2033 43.2188 85.62 48.9688C83.0367 54.7188 81.2554 58.9375 80.2763 61.625C78.6304 66.1875 77.37 70.4375 76.495 74.375C75.6408 78.2917 75.2867 81.3438 75.4325 83.5312C75.5158 84.4271 75.5054 85 75.4013 85.25C75.2971 85.5 75.0054 85.6667 74.5263 85.75C74.1096 85.8125 73.7971 85.7604 73.5888 85.5938C73.4013 85.4479 73.245 85.125 73.12 84.625C72.4533 81.9583 73.0888 77.1146 75.0263 70.0938C76.9846 63.0521 79.745 55.6458 83.3075 47.875C84.4533 45.3958 85.0263 43.7812 85.0263 43.0312C85.0263 42.4271 85.3075 41.7812 85.87 41.0938C86.2658 40.6354 86.4117 40.3854 86.3075 40.3438C86.2033 40.2812 85.5367 40.3333 84.3075 40.5C82.7658 40.7292 79.2971 41.3958 73.9013 42.5C68.5263 43.5833 64.6929 44.4062 62.4013 44.9688C59.5263 45.6354 58.0263 45.5729 57.9013 44.7812C57.8804 44.5729 57.9221 44.3333 58.0263 44.0625C58.1721 43.6667 60.3908 42.9583 64.6825 41.9375C68.9533 40.8958 74.0575 39.8229 79.995 38.7188L88.2763 37.2188L93.8075 26.5312C96.0158 22.2604 97.5471 19.4167 98.4013 18C99.2763 16.5625 99.9117 15.8438 100.308 15.8438C101.662 15.8438 101.818 17.875 100.776 21.9375C100.235 23.9792 99.5783 25.7917 98.8075 27.375C98.0367 28.9375 96.8804 30.7812 95.3388 32.9062L92.745 36.5312L95.0575 36.25ZM109.805 55.4688C110.826 55.3438 111.44 55.3229 111.649 55.4062C111.857 55.4688 111.961 55.75 111.961 56.25C111.961 56.9375 111.503 57.4583 110.586 57.8125C109.67 58.1458 108.513 58.2188 107.118 58.0312C106.055 57.8854 105.128 57.5104 104.336 56.9062C103.545 56.2812 102.753 55.3333 101.961 54.0625C101.69 53.625 101.461 53.4375 101.274 53.5C101.086 53.5417 100.618 53.9271 99.8675 54.6562C99.43 55.0729 98.805 55.9271 97.9925 57.2188C97.2008 58.4896 96.4508 59.8229 95.7425 61.2188C94.0133 64.7396 92.7633 66.4896 91.9925 66.4688C91.7217 66.4479 91.5029 66.2292 91.3363 65.8125C91.1904 65.3542 91.6071 63.0625 92.5863 58.9375C93.6071 54.8958 94.0133 52.4062 93.805 51.4688C93.6383 50.7188 93.7633 50.1042 94.18 49.625C94.6175 49.125 95.1383 48.9792 95.7425 49.1875C96.2217 49.3542 96.4613 50.2917 96.4613 52V54.5312L98.6175 52.4375C99.9717 51.125 101.034 50.5 101.805 50.5625C102.576 50.6042 103.357 51.3542 104.149 52.8125C104.836 54.0417 105.576 54.8438 106.368 55.2188C107.18 55.5938 108.326 55.6771 109.805 55.4688ZM136.677 55.3125C137.24 55.25 137.636 55.4583 137.865 55.9375C138.094 56.4167 137.948 56.9688 137.427 57.5938C137.011 58.0521 136.552 58.5417 136.052 59.0625C135.552 59.5625 134.709 60.3333 133.521 61.375C132.334 62.4167 131.146 63.3542 129.959 64.1875C128.771 65 127.365 65.7917 125.74 66.5625C124.115 67.3333 122.542 67.8646 121.021 68.1562C118.813 68.5729 116.855 68.2396 115.146 67.1562C113.438 66.0521 112.48 64.5104 112.271 62.5312C112.063 60.4479 112.188 58.2708 112.646 56C113.042 54.0833 113.532 52.6979 114.115 51.8438C114.698 50.9896 115.313 50.7708 115.959 51.1875C116.25 51.3542 116.396 51.75 116.396 52.375C116.396 52.9792 116.261 53.3646 115.99 53.5312C115.698 53.7188 115.365 55.0729 114.99 57.5938C114.74 59.1979 114.615 60.3333 114.615 61C114.636 61.6458 114.802 62.3438 115.115 63.0938C115.698 64.5104 116.834 65.3021 118.521 65.4688C120.23 65.6146 122.011 65.3125 123.865 64.5625C125.74 63.8125 127.459 62.8333 129.021 61.625C130 60.8542 131.094 59.9271 132.302 58.8438C133.532 57.7396 134.49 56.8854 135.177 56.2812C135.886 55.6771 136.386 55.3542 136.677 55.3125ZM117.646 47.375C117.417 47.6042 117.125 47.7188 116.771 47.7188C116.417 47.7188 116.115 47.6042 115.865 47.375C115.636 47.125 115.521 46.8229 115.521 46.4688C115.521 46.1146 115.636 45.8229 115.865 45.5938C116.115 45.3438 116.417 45.2188 116.771 45.2188C117.125 45.2188 117.417 45.3438 117.646 45.5938C117.896 45.8229 118.021 46.1146 118.021 46.4688C118.021 46.8229 117.896 47.125 117.646 47.375ZM155.394 55.375C155.81 55.75 155.425 56.4688 154.238 57.5312C153.55 58.1354 151.967 59.3125 149.488 61.0625C147.008 62.7917 145.258 63.8958 144.238 64.375C141.446 65.625 139.269 65.5625 137.706 64.1875C136.623 63.25 136.196 61.9688 136.425 60.3438C136.758 58.0312 137.56 55.875 138.831 53.875C140.206 51.5417 141.56 49.9271 142.894 49.0312C144.227 48.1354 145.321 48.1146 146.175 48.9688C146.8 49.5938 146.935 50.8438 146.581 52.7188C146.248 54.5729 145.665 55.7188 144.831 56.1562C144.352 56.4062 143.956 56.4479 143.644 56.2812C143.331 56.1146 143.175 55.8125 143.175 55.375C143.175 54.9167 143.321 54.375 143.613 53.75C144.425 52.2083 144.644 51.3854 144.269 51.2812C143.915 51.1562 143.248 51.7812 142.269 53.1562L141.8 53.8438C140.196 56.3438 139.238 58.3646 138.925 59.9062C138.613 61.4271 138.988 62.3542 140.05 62.6875C140.758 62.9375 141.748 62.7604 143.019 62.1562C144.29 61.5521 146.425 60.25 149.425 58.25C151.696 56.7292 153.185 55.8021 153.894 55.4688C154.602 55.1146 155.102 55.0833 155.394 55.375ZM179.454 56.0312C179.6 56.2812 179.6 56.5208 179.454 56.75C179.329 56.9792 178.943 57.2917 178.298 57.6875C177.652 58.0625 176.766 58.5 175.641 59C174.516 59.5 172.954 60.1667 170.954 61C166.62 62.8333 163.527 64.0104 161.673 64.5312C159.839 65.0521 158.089 65.2292 156.423 65.0625L154.016 64.875L152.61 68.3125C151.548 70.8958 150.756 73.1875 150.235 75.1875C149.714 77.1875 149.381 79.25 149.235 81.375C149.027 84 148.662 85.3438 148.141 85.4062C147.933 85.4479 147.662 85.3021 147.329 84.9688C146.558 84.2188 146.464 82.0729 147.048 78.5312C147.61 74.9896 148.641 71.4062 150.141 67.7812C151.162 65.2188 151.975 63.1042 152.579 61.4375C153.266 59.5625 154.193 57.625 155.36 55.625C156.902 52.8958 158.589 49.7708 160.423 46.25C162.589 42.1875 165.173 37.5104 168.173 32.2188C171.318 26.6979 173.423 22.9688 174.485 21.0312C176.173 17.9479 177.579 16.7604 178.704 17.4688C179.454 17.9271 179.318 18.7188 178.298 19.8438C177.902 20.2812 176.745 22.1562 174.829 25.4688C167.725 38.0312 164.173 44.4375 164.173 44.6875C164.173 44.8542 165.152 44.0312 167.11 42.2188C170.027 39.5312 172.1 38.5938 173.329 39.4062C173.954 39.8021 174.193 40.2083 174.048 40.625C173.923 41.0417 173.454 41.2917 172.641 41.375C171.787 41.4583 170.298 42.5104 168.173 44.5312C166.068 46.5521 163.923 48.9271 161.735 51.6562C159.548 54.3646 157.933 56.7083 156.891 58.6875C156.475 59.4583 156.162 60.0729 155.954 60.5312C155.766 60.9688 155.631 61.3542 155.548 61.6875C155.464 62.0208 155.495 62.2604 155.641 62.4062C155.787 62.5312 155.985 62.625 156.235 62.6875C156.506 62.75 156.891 62.7812 157.391 62.7812C158.579 62.7812 160.214 62.4375 162.298 61.75C164.402 61.0417 167.423 59.8229 171.36 58.0938C174.423 56.7812 176.464 56 177.485 55.75C178.506 55.4792 179.162 55.5729 179.454 56.0312ZM251.23 51.5312C253.209 51.5312 251.845 53.5625 247.136 57.625C240.178 63.7083 235.053 68.1354 231.761 70.9062C228.47 73.6562 225.897 75.6979 224.042 77.0312C222.188 78.3646 220.199 79.6146 218.074 80.7812C214.928 82.5104 211.876 83.5938 208.917 84.0312C205.959 84.4896 203.428 84.3125 201.324 83.5C199.22 82.7083 197.73 81.4062 196.855 79.5938C195.98 77.7812 195.511 75.5729 195.449 72.9688C195.386 70.3646 195.636 67.7083 196.199 65C196.782 62.2708 197.636 59.2917 198.761 56.0625C199.907 52.8333 201.105 49.8125 202.355 47C203.605 44.1875 205.001 41.2604 206.542 38.2188C215.897 19.8854 224.949 10.2812 233.699 9.40625C237.699 9.01042 240.438 10.1979 241.917 12.9688C243.522 15.9896 243.376 21.0938 241.48 28.2812C240.98 30.1562 239.803 33.0208 237.949 36.875C236.095 40.7292 234.272 44.1771 232.48 47.2188C230.709 50.2604 229.647 51.7812 229.292 51.7812C228.917 51.7812 228.553 51.5104 228.199 50.9688C228.011 50.6562 228.115 50.0312 228.511 49.0938C228.928 48.1354 229.803 46.5 231.136 44.1875C238.865 30.8333 241.824 21.4375 240.011 16C239.574 14.6667 238.813 13.6979 237.73 13.0938C236.667 12.4688 235.386 12.2292 233.886 12.375C232.407 12.5 230.678 13.1146 228.699 14.2188C226.74 15.3021 224.73 16.8229 222.667 18.7812C220.438 20.8854 218.261 23.4896 216.136 26.5938C214.032 29.6979 211.73 33.6875 209.23 38.5625C202.584 51.3958 198.855 62.2396 198.042 71.0938C197.917 72.6146 198.053 74.1042 198.449 75.5625C198.865 77 199.647 78.2917 200.792 79.4375C201.959 80.6042 203.407 81.2812 205.136 81.4688C206.761 81.6562 208.48 81.5104 210.292 81.0312C212.126 80.5521 214.376 79.6562 217.042 78.3438C219.313 77.1979 221.98 75.4375 225.042 73.0625C228.105 70.6875 232.917 66.6667 239.48 61C242.459 58.3958 245.095 56.1667 247.386 54.3125C249.699 52.4583 250.98 51.5312 251.23 51.5312ZM276.29 55.625C276.79 55.3125 277.248 55.2708 277.665 55.5C278.207 55.7708 278.144 56.2917 277.477 57.0625C277.332 57.2083 277.165 57.3646 276.977 57.5312C272.998 61.0729 270.123 62.9896 268.352 63.2812C267.186 63.4896 266.165 63.4583 265.29 63.1875C264.415 62.9167 263.634 62.2083 262.946 61.0625C262.655 60.5833 262.196 59.5833 261.571 58.0625C260.946 56.5417 260.634 55.7708 260.634 55.75C260.488 55.6042 260.102 55.8438 259.477 56.4688C258.873 57.0938 258.123 57.9896 257.227 59.1562C256.332 60.3021 255.436 61.5521 254.54 62.9062C254.019 63.7188 253.498 64.4167 252.977 65C252.457 65.5625 252.102 65.8438 251.915 65.8438C251.436 65.8438 251.061 65.2188 250.79 63.9688C250.436 62.1979 250.727 59.7917 251.665 56.75C252.602 53.6875 254.352 49.4583 256.915 44.0625C258.457 40.8333 260.644 36.0312 263.477 29.6562C265.332 25.4896 266.592 22.8021 267.259 21.5938C267.925 20.3646 268.498 19.75 268.977 19.75C269.686 19.75 270.227 20.2917 270.602 21.375C270.998 22.4375 271.092 23.7292 270.884 25.25C270.675 26.5417 270.363 27.7812 269.946 28.9688C269.53 30.1562 268.769 31.7083 267.665 33.625C266.582 35.5208 265.613 37.1354 264.759 38.4688C263.905 39.8021 262.394 42.1354 260.227 45.4688C257.582 49.4688 255.738 52.8542 254.696 55.625L253.29 59.5625L256.509 56.0312C257.509 54.9479 258.352 54.1146 259.04 53.5312C259.748 52.9479 260.363 52.5938 260.884 52.4688C261.425 52.3438 261.852 52.4583 262.165 52.8125C262.498 53.1667 262.769 53.7604 262.977 54.5938C263.311 55.9479 263.696 57.1146 264.134 58.0938C264.592 59.0521 265.04 59.75 265.477 60.1875C265.936 60.625 266.342 60.9375 266.696 61.125C267.071 61.2917 267.405 61.3542 267.696 61.3125C268.28 61.2083 269.186 60.75 270.415 59.9375C271.644 59.1042 272.884 58.2083 274.134 57.25C275.405 56.2708 276.123 55.7292 276.29 55.625ZM294.881 54.4688C295.298 54.3646 295.579 54.4688 295.725 54.7812C295.892 55.0938 295.913 55.4583 295.788 55.875C295.683 56.2917 295.496 56.5833 295.225 56.75C295.017 56.875 294.694 56.9896 294.256 57.0938C293.819 57.1979 293.048 57.4375 291.944 57.8125C290.86 58.1875 289.548 58.7083 288.006 59.375C285.735 60.3542 284.204 61.0938 283.413 61.5938C282.642 62.0729 281.954 62.7396 281.35 63.5938C280.371 64.9688 279.371 65.875 278.35 66.3125C277.35 66.7292 276.392 66.6562 275.475 66.0938C274.892 65.7188 274.475 65.2604 274.225 64.7188C273.975 64.1771 273.892 63.6458 273.975 63.125C274.058 62.5833 274.142 62.1667 274.225 61.875C274.329 61.5833 274.433 61.3438 274.538 61.1562C274.746 60.8021 275.027 60.4583 275.381 60.125C275.735 59.7708 276.058 59.5312 276.35 59.4062C277.079 59.1146 277.444 58.6042 277.444 57.875C277.465 57.0833 277.975 55.8542 278.975 54.1875C279.996 52.5208 280.913 51.3958 281.725 50.8125C282.85 50 283.767 49.5625 284.475 49.5C285.204 49.4375 285.829 49.7083 286.35 50.3125C286.663 50.6667 286.871 50.9479 286.975 51.1562C287.1 51.3438 287.194 51.7083 287.256 52.25C287.319 52.7917 287.235 53.4375 287.006 54.1875C286.902 54.6667 286.746 55.1667 286.538 55.6875C286.35 56.2083 286.194 56.6146 286.069 56.9062C285.944 57.1979 285.881 57.3542 285.881 57.375C285.902 57.3958 286.569 57.1875 287.881 56.75C289.194 56.3125 290.6 55.8438 292.1 55.3438C293.621 54.8438 294.548 54.5521 294.881 54.4688ZM278.381 63.125C278.798 62.6875 279.048 62.3958 279.131 62.25C279.215 62.1042 279.225 61.9792 279.163 61.875C279.1 61.7708 278.881 61.625 278.506 61.4375C278.11 61.2083 277.808 61.125 277.6 61.1875C277.413 61.2292 277.215 61.4479 277.006 61.8438C276.819 62.2188 276.673 62.5938 276.569 62.9688C276.485 63.3438 276.465 63.6562 276.506 63.9062C276.569 64.1562 276.694 64.2812 276.881 64.2812C277.194 64.2812 277.694 63.8958 278.381 63.125ZM282.756 56.9062C283.735 55.2188 284.225 54.0104 284.225 53.2812C284.225 52.8021 284.173 52.5312 284.069 52.4688C283.965 52.4062 283.704 52.5 283.288 52.75C282.746 53.1042 282.038 54.0312 281.163 55.5312C280.288 57.0312 279.85 58.0833 279.85 58.6875C279.85 59.4167 280.121 59.6458 280.663 59.375C281.308 59.0625 282.006 58.2396 282.756 56.9062ZM320.598 55.3125C321.16 55.25 321.556 55.4583 321.785 55.9375C322.014 56.4167 321.868 56.9688 321.348 57.5938C320.931 58.0521 320.473 58.5417 319.973 59.0625C319.473 59.5625 318.629 60.3333 317.441 61.375C316.254 62.4167 315.066 63.3542 313.879 64.1875C312.691 65 311.285 65.7917 309.66 66.5625C308.035 67.3333 306.462 67.8646 304.941 68.1562C302.733 68.5729 300.775 68.2396 299.066 67.1562C297.358 66.0521 296.4 64.5104 296.191 62.5312C295.983 60.4479 296.108 58.2708 296.566 56C296.962 54.0833 297.452 52.6979 298.035 51.8438C298.618 50.9896 299.233 50.7708 299.879 51.1875C300.17 51.3542 300.316 51.75 300.316 52.375C300.316 52.9792 300.181 53.3646 299.91 53.5312C299.618 53.7188 299.285 55.0729 298.91 57.5938C298.66 59.1979 298.535 60.3333 298.535 61C298.556 61.6458 298.723 62.3438 299.035 63.0938C299.618 64.5104 300.754 65.3021 302.441 65.4688C304.15 65.6146 305.931 65.3125 307.785 64.5625C309.66 63.8125 311.379 62.8333 312.941 61.625C313.92 60.8542 315.014 59.9271 316.223 58.8438C317.452 57.7396 318.41 56.8854 319.098 56.2812C319.806 55.6771 320.306 55.3542 320.598 55.3125ZM301.566 47.375C301.337 47.6042 301.045 47.7188 300.691 47.7188C300.337 47.7188 300.035 47.6042 299.785 47.375C299.556 47.125 299.441 46.8229 299.441 46.4688C299.441 46.1146 299.556 45.8229 299.785 45.5938C300.035 45.3438 300.337 45.2188 300.691 45.2188C301.045 45.2188 301.337 45.3438 301.566 45.5938C301.816 45.8229 301.941 46.1146 301.941 46.4688C301.941 46.8229 301.816 47.125 301.566 47.375Z" fill="#AAAAAA"/>
</svg>
